# xmcd
#
# Track frame offsets: 
#        150
#        22050
#        46090
#        67810
#        91697
#        109677
#        127680
#        151637
#        180565
#        212240
#
# Disc length: 3271 seconds
#
# Revision: 1
# Processed by: cddbd v1.5.2PL0 Copyright (c) Steve Scherf et al.
# Submitted via: ExactAudioCopy v0.95b2
#
DISCID=6e0cc50a
DTITLE=Bo Diddley - A Man Amongst Men
DYEAR=1996
DGENRE=Blues
TTITLE0=Bo Diddley Is Crazy
TTITLE1=Can I Walk You Home
TTITLE2=Hey Baby
TTITLE3=I Can't Stand It
TTITLE4=He's Got A Key
TTITLE5=A Man Amongst Men
TTITLE6=Coatimundi
TTITLE7=That Mule
TTITLE8=Kids Don't Do It
TTITLE9=Oops! Bo Diddley
EXTD=
EXTT0=
EXTT1=
EXTT2=
EXTT3=
EXTT4=
EXTT5=
EXTT6=
EXTT7=
EXTT8=
EXTT9=
PLAYORDER=
